<svg version="1.1" id="Layer_1" xmlns="http://www.w3.org/2000/svg" xmlns:xlink="http://www.w3.org/1999/xlink" x="0px" y="0px"
	 width="100%" viewBox="0 0 500 500" enable-background="new 0 0 500 500" xml:space="preserve">
<path fill="#000000" opacity="1.000000" stroke="none" 
	d="
M1.000000,177.000000 
	C1.000000,118.014610 1.000000,59.529213 1.000000,1.021910 
	C167.610443,1.021910 334.220886,1.021910 500.915649,1.021910 
	C500.915649,167.568787 500.915649,334.137634 500.915649,500.853241 
	C334.333435,500.853241 167.666733,500.853241 1.000000,500.853241 
	C1.000000,393.112305 1.000000,285.306152 1.000000,177.000000 
M82.442009,90.048103 
	C82.249092,90.355614 82.056183,90.663116 81.981567,90.960587 
	C81.981567,90.960587 81.959511,90.843933 81.429604,91.028824 
	C81.234581,91.337250 81.039558,91.645683 80.948006,91.904976 
	C80.948006,91.904976 80.879135,91.813446 80.335564,92.049377 
	C79.929596,92.690018 79.523628,93.330658 78.811302,94.581551 
	C76.438782,97.294464 73.811020,99.826515 71.738274,102.751839 
	C63.112919,114.925056 53.838478,126.740868 46.348427,139.589218 
	C37.608318,154.581894 31.051712,170.733734 26.656395,187.658569 
	C22.966791,201.865952 19.147116,216.032944 18.170380,231.249771 
	C18.115194,242.888779 18.044069,254.527802 18.046766,266.166809 
	C18.046917,266.823914 18.653681,267.480927 19.003912,269.035828 
	C19.990353,276.978546 20.808331,284.946564 21.996485,292.858978 
	C24.938757,312.452850 31.285433,331.045929 39.533318,348.958160 
	C46.001823,363.005981 53.360882,376.617401 63.140526,388.732178 
	C69.094032,396.107239 74.861526,403.668762 81.284271,410.618164 
	C87.218025,417.038544 93.416107,423.418915 100.381058,428.638214 
	C113.602196,438.545685 126.951294,448.467987 141.168030,456.816010 
	C160.434097,468.128967 181.679840,475.062805 203.512756,479.633118 
	C214.186768,481.867493 225.195923,482.500946 236.973236,484.008881 
	C246.293091,483.955811 255.612946,483.902740 265.835327,483.968384 
	C275.537537,482.646149 285.265259,481.486298 294.936676,479.967926 
	C315.008942,476.816650 333.929291,469.950623 352.204071,461.314545 
	C370.553711,452.643066 387.190948,441.341644 402.637024,428.130035 
	C416.498322,416.273926 428.927338,403.089935 439.702972,388.500061 
	C450.392761,374.026367 458.996307,358.250977 466.167908,341.653717 
	C473.693634,324.237091 479.041412,306.144012 481.700806,287.537018 
	C483.817627,272.725952 484.305634,257.502777 483.708435,242.534683 
	C483.137054,228.213608 480.986786,213.835297 478.177734,199.751953 
	C473.995483,178.784027 465.975586,159.068893 455.731415,140.276917 
	C446.867706,124.017197 436.327087,108.927773 423.735229,95.376671 
	C417.554504,88.725098 410.589813,82.804031 404.010101,76.520744 
	C390.671295,63.782902 375.114471,54.293537 359.046173,45.491501 
	C340.157898,35.144730 319.629242,29.235418 299.199982,23.066364 
	C295.365417,21.908430 291.263519,21.541590 287.253937,21.078236 
	C280.227112,20.266205 273.176270,19.662073 265.710144,18.189163 
	C256.241333,18.123554 246.772507,18.033091 237.303711,18.035425 
	C236.467865,18.035631 235.632187,18.642033 233.930054,18.931831 
	C222.283691,20.936657 210.617615,22.835077 198.998947,24.989241 
	C192.784225,26.141481 186.445587,27.149250 180.517700,29.232082 
	C157.434021,37.342800 135.077240,47.056198 115.494324,62.092949 
	C108.127083,67.749886 101.135925,73.896614 93.364548,80.001381 
	C92.859131,80.307632 92.353714,80.613876 91.954269,80.933723 
	C91.954269,80.933723 91.942879,80.827484 91.406013,81.007347 
	C91.208107,81.318382 91.010193,81.629417 90.939209,81.979431 
	C90.939209,81.979431 90.963158,81.848831 90.440582,82.046028 
	C90.250717,82.354881 90.060844,82.663742 89.986778,82.946632 
	C89.986778,82.946632 89.949348,82.834023 89.415779,83.017677 
	C89.222603,83.329124 89.029427,83.640572 88.956306,83.971695 
	C88.956306,83.971695 88.960442,83.850113 88.428963,84.034363 
	C88.233475,84.343857 88.037987,84.653351 87.968315,84.969528 
	C87.968315,84.969528 87.961136,84.843750 87.428436,85.031044 
	C87.229836,85.340767 87.031227,85.650497 86.968025,85.964867 
	C86.968025,85.964867 86.957748,85.829781 86.428627,86.029564 
	C86.230103,86.340004 86.031570,86.650452 85.968544,86.964958 
	C85.968544,86.964958 85.957817,86.829826 85.428490,87.029739 
	C85.229645,87.340233 85.030807,87.650734 84.966980,87.971466 
	C84.966980,87.971466 84.963524,87.836105 84.436363,88.037025 
	C84.241928,88.347992 84.047501,88.658958 83.979813,88.962219 
	C83.979813,88.962219 83.959770,88.836838 83.431854,89.031921 
	C83.243011,89.343872 83.054176,89.655815 82.969994,89.981644 
	C82.969994,89.981644 82.973389,89.876122 82.442009,90.048103 
z"/>
<path fill="#AAA186" opacity="1.000000" stroke="none" 
	d="
M18.977734,230.858521 
	C19.147116,216.032944 22.966791,201.865952 26.656395,187.658569 
	C31.051712,170.733734 37.608318,154.581894 46.348427,139.589218 
	C53.838478,126.740868 63.112919,114.925056 71.738274,102.751839 
	C73.811020,99.826515 76.438782,97.294464 79.296883,94.244713 
	C80.148018,93.209732 80.513573,92.511589 80.879135,91.813446 
	C80.879135,91.813446 80.948006,91.904976 81.176346,91.857895 
	C81.589622,91.488525 81.774567,91.166229 81.959518,90.843933 
	C81.959511,90.843933 81.981567,90.960587 82.189850,90.880859 
	C82.589890,90.492790 82.781639,90.184456 82.973389,89.876122 
	C82.973389,89.876122 82.969994,89.981644 83.193741,89.895187 
	C83.598251,89.484764 83.779007,89.160805 83.959770,88.836838 
	C83.959770,88.836838 83.979813,88.962219 84.190147,88.879730 
	C84.588165,88.476868 84.775841,88.156487 84.963524,87.836105 
	C84.963524,87.836105 84.966980,87.971466 85.181351,87.889015 
	C85.583092,87.480988 85.770454,87.155411 85.957825,86.829826 
	C85.957817,86.829826 85.968544,86.964958 86.182495,86.885681 
	C86.583542,86.480865 86.770645,86.155327 86.957748,85.829781 
	C86.957748,85.829781 86.968025,85.964867 87.180984,85.886932 
	C87.583008,85.487251 87.772079,85.165504 87.961136,84.843750 
	C87.961136,84.843750 87.968315,84.969528 88.183746,84.889938 
	C88.586258,84.490265 88.773354,84.170189 88.960442,83.850113 
	C88.960442,83.850113 88.956306,83.971695 89.184326,83.898712 
	C89.591354,83.495163 89.770355,83.164597 89.949348,82.834023 
	C89.949348,82.834023 89.986778,82.946632 90.196938,82.871201 
	C90.592453,82.480125 90.777802,82.164482 90.963158,81.848831 
	C90.963158,81.848831 90.939209,81.979431 91.172440,81.908363 
	C91.584740,81.500687 91.763802,81.164085 91.942871,80.827484 
	C91.942879,80.827484 91.954269,80.933723 92.231544,80.935837 
	C92.996986,80.565323 93.485146,80.192688 93.973312,79.820053 
	C101.135925,73.896614 108.127083,67.749886 115.494324,62.092949 
	C135.077240,47.056198 157.434021,37.342800 180.517700,29.232082 
	C186.445587,27.149250 192.784225,26.141481 198.998947,24.989241 
	C210.617615,22.835077 222.283691,20.936657 234.841583,19.016632 
	C245.880554,19.057903 256.007996,19.014376 266.135468,18.970848 
	C273.176270,19.662073 280.227112,20.266205 287.253937,21.078236 
	C291.263519,21.541590 295.365417,21.908430 299.199982,23.066364 
	C319.629242,29.235418 340.157898,35.144730 359.046173,45.491501 
	C375.114471,54.293537 390.671295,63.782902 404.010101,76.520744 
	C410.589813,82.804031 417.554504,88.725098 423.735229,95.376671 
	C436.327087,108.927773 446.867706,124.017197 455.731415,140.276917 
	C465.975586,159.068893 473.995483,178.784027 478.177734,199.751953 
	C480.986786,213.835297 483.137054,228.213608 483.708435,242.534683 
	C484.305634,257.502777 483.817627,272.725952 481.700806,287.537018 
	C479.041412,306.144012 473.693634,324.237091 466.167908,341.653717 
	C458.996307,358.250977 450.392761,374.026367 439.702972,388.500061 
	C428.927338,403.089935 416.498322,416.273926 402.637024,428.130035 
	C387.190948,441.341644 370.553711,452.643066 352.204071,461.314545 
	C333.929291,469.950623 315.008942,476.816650 294.936676,479.967926 
	C285.265259,481.486298 275.537537,482.646149 265.084045,483.628418 
	C259.251923,483.198395 254.168671,482.970306 249.091049,483.060303 
	C244.741806,483.137360 240.399017,483.578766 236.053375,483.859009 
	C225.195923,482.500946 214.186768,481.867493 203.512756,479.633118 
	C181.679840,475.062805 160.434097,468.128967 141.168030,456.816010 
	C126.951294,448.467987 113.602196,438.545685 100.381058,428.638214 
	C93.416107,423.418915 87.218025,417.038544 81.284271,410.618164 
	C74.861526,403.668762 69.094032,396.107239 63.140526,388.732178 
	C53.360882,376.617401 46.001823,363.005981 39.533318,348.958160 
	C31.285433,331.045929 24.938757,312.452850 21.996485,292.858978 
	C20.808331,284.946564 19.990353,276.978546 19.041759,268.111389 
	C19.045647,255.077499 19.011690,242.968002 18.977734,230.858521 
M273.740845,474.992981 
	C275.163086,474.667236 276.577759,474.302795 278.008789,474.021820 
	C290.616516,471.546204 303.424652,469.812531 315.791809,466.453979 
	C335.547089,461.088989 353.999878,452.281128 371.123413,441.132660 
	C380.673706,434.914917 389.782593,427.776428 398.137451,420.025604 
	C409.103851,409.852112 420.143738,399.456970 429.309418,387.718353 
	C441.173035,372.524506 450.558319,355.616425 458.191650,337.704193 
	C467.289093,316.356293 473.053436,294.120728 474.662384,271.251099 
	C476.290588,248.107147 475.500000,224.802704 470.045013,201.888535 
	C463.690125,175.194275 453.221680,150.342514 438.060608,127.534821 
	C430.799805,116.611954 423.485504,105.682243 413.442047,96.882713 
	C408.959381,92.955254 405.835846,87.360725 401.110016,83.848900 
	C388.367462,74.379707 375.317841,65.278275 361.976959,56.671204 
	C345.325562,45.928272 326.926239,38.780678 307.767426,34.187580 
	C293.712830,30.818165 279.228699,29.240515 264.330444,26.311823 
	C255.581818,26.483265 246.833206,26.654707 237.210403,26.965771 
	C229.598816,27.973272 221.988739,28.992239 214.375366,29.986073 
	C193.388870,32.725605 173.724915,39.800503 154.758911,48.798985 
	C129.351196,60.853756 107.084404,77.195518 87.656563,97.706268 
	C69.728210,116.633934 55.816105,138.071838 45.198975,161.638840 
	C34.420002,185.565063 29.107668,210.992722 26.281996,237.679550 
	C26.471458,246.762131 26.660921,255.844727 27.061493,265.763367 
	C27.382553,266.676270 27.871258,267.566345 27.998892,268.505554 
	C29.364958,278.557892 30.344891,288.674622 32.062408,298.665039 
	C36.582176,324.955566 47.022278,348.999939 61.088406,371.472351 
	C71.344879,387.858337 83.416328,402.846069 98.167984,415.494812 
	C106.242622,422.418365 114.172447,429.552582 122.657867,435.940521 
	C128.293503,440.183075 135.027924,442.937103 140.861786,446.951447 
	C152.140549,454.712372 164.634918,459.814240 177.511719,463.872162 
	C187.105515,466.895508 197.047562,468.868073 206.903549,470.987671 
	C214.576157,472.637726 222.355118,473.793243 230.728836,475.659668 
	C237.616562,476.068054 244.508987,476.862427 251.390701,476.778412 
	C258.565796,476.690887 265.730560,475.756561 273.740845,474.992981 
z"/>
<path fill="#E8DCC5" opacity="1.000000" stroke="none" 
	d="
M18.574057,231.054138 
	C19.011690,242.968002 19.045647,255.077499 19.028858,267.662476 
	C18.653681,267.480927 18.046917,266.823914 18.046766,266.166809 
	C18.044069,254.527802 18.115194,242.888779 18.574057,231.054138 
z"/>
<path fill="#E8DFC7" opacity="1.000000" stroke="none" 
	d="
M265.922791,18.580006 
	C256.007996,19.014376 245.880554,19.057903 235.274765,19.034157 
	C235.632187,18.642033 236.467865,18.035631 237.303711,18.035425 
	C246.772507,18.033091 256.241333,18.123554 265.922791,18.580006 
z"/>
<path fill="#CBC4AA" opacity="1.000000" stroke="none" 
	d="
M236.513306,483.933960 
	C240.399017,483.578766 244.741806,483.137360 249.091049,483.060303 
	C254.168671,482.970306 259.251923,483.198395 264.632751,483.569061 
	C255.612946,483.902740 246.293091,483.955811 236.513306,483.933960 
z"/>
<path fill="#D2C9AF" opacity="1.000000" stroke="none" 
	d="
M80.607346,91.931412 
	C80.513573,92.511589 80.148018,93.209732 79.450058,93.939590 
	C79.523628,93.330658 79.929596,92.690018 80.607346,91.931412 
z"/>
<path fill="#D2C9AF" opacity="1.000000" stroke="none" 
	d="
M93.668930,79.910721 
	C93.485146,80.192688 92.996986,80.565323 92.178558,80.929039 
	C92.353714,80.613876 92.859131,80.307632 93.668930,79.910721 
z"/>
<path fill="#D2C9AF" opacity="1.000000" stroke="none" 
	d="
M86.693192,85.929672 
	C86.770645,86.155327 86.583542,86.480865 86.114746,86.883652 
	C86.031570,86.650452 86.230103,86.340004 86.693192,85.929672 
z"/>
<path fill="#D2C9AF" opacity="1.000000" stroke="none" 
	d="
M91.674438,80.917419 
	C91.763802,81.164085 91.584740,81.500687 91.108978,81.888870 
	C91.010193,81.629417 91.208107,81.318382 91.674438,80.917419 
z"/>
<path fill="#D2C9AF" opacity="1.000000" stroke="none" 
	d="
M90.701874,81.947433 
	C90.777802,82.164482 90.592453,82.480125 90.139038,82.884186 
	C90.060844,82.663742 90.250717,82.354881 90.701874,81.947433 
z"/>
<path fill="#D2C9AF" opacity="1.000000" stroke="none" 
	d="
M89.682564,82.925850 
	C89.770355,83.164597 89.591354,83.495163 89.124298,83.888878 
	C89.029427,83.640572 89.222603,83.329124 89.682564,82.925850 
z"/>
<path fill="#D2C9AF" opacity="1.000000" stroke="none" 
	d="
M88.694702,83.942238 
	C88.773354,84.170189 88.586258,84.490265 88.120834,84.886597 
	C88.037987,84.653351 88.233475,84.343857 88.694702,83.942238 
z"/>
<path fill="#D2C9AF" opacity="1.000000" stroke="none" 
	d="
M87.694794,84.937393 
	C87.772079,85.165504 87.583008,85.487251 87.113281,85.884613 
	C87.031227,85.650497 87.229836,85.340767 87.694794,84.937393 
z"/>
<path fill="#D2C9AF" opacity="1.000000" stroke="none" 
	d="
M81.694565,90.936378 
	C81.774567,91.166229 81.589622,91.488525 81.124603,91.882462 
	C81.039558,91.645683 81.234581,91.337250 81.694565,90.936378 
z"/>
<path fill="#D2C9AF" opacity="1.000000" stroke="none" 
	d="
M85.693161,86.929779 
	C85.770454,87.155411 85.583092,87.480988 85.113846,87.883896 
	C85.030807,87.650734 85.229645,87.340233 85.693161,86.929779 
z"/>
<path fill="#D2C9AF" opacity="1.000000" stroke="none" 
	d="
M84.699944,87.936569 
	C84.775841,88.156487 84.588165,88.476868 84.126778,88.883591 
	C84.047501,88.658958 84.241928,88.347992 84.699944,87.936569 
z"/>
<path fill="#D2C9AF" opacity="1.000000" stroke="none" 
	d="
M83.695816,88.934380 
	C83.779007,89.160805 83.598251,89.484764 83.141418,89.888245 
	C83.054176,89.655815 83.243011,89.343872 83.695816,88.934380 
z"/>
<path fill="#D2C9AF" opacity="1.000000" stroke="none" 
	d="
M82.707703,89.962112 
	C82.781639,90.184456 82.589890,90.492790 82.130707,90.885880 
	C82.056183,90.663116 82.249092,90.355614 82.707703,89.962112 
z"/>
<path fill="#000000" opacity="1.000000" stroke="none" 
	d="
M26.837704,237.077499 
	C29.107668,210.992722 34.420002,185.565063 45.198975,161.638840 
	C55.816105,138.071838 69.728210,116.633934 87.656563,97.706268 
	C107.084404,77.195518 129.351196,60.853756 154.758911,48.798985 
	C173.724915,39.800503 193.388870,32.725605 214.375366,29.986073 
	C221.988739,28.992239 229.598816,27.973272 238.106171,26.964001 
	C247.646622,26.929590 256.291321,26.896954 264.936005,26.864315 
	C279.228699,29.240515 293.712830,30.818165 307.767426,34.187580 
	C326.926239,38.780678 345.325562,45.928272 361.976959,56.671204 
	C375.317841,65.278275 388.367462,74.379707 401.110016,83.848900 
	C405.835846,87.360725 408.959381,92.955254 413.442047,96.882713 
	C423.485504,105.682243 430.799805,116.611954 438.060608,127.534821 
	C453.221680,150.342514 463.690125,175.194275 470.045013,201.888535 
	C475.500000,224.802704 476.290588,248.107147 474.662384,271.251099 
	C473.053436,294.120728 467.289093,316.356293 458.191650,337.704193 
	C450.558319,355.616425 441.173035,372.524506 429.309418,387.718353 
	C420.143738,399.456970 409.103851,409.852112 398.137451,420.025604 
	C389.782593,427.776428 380.673706,434.914917 371.123413,441.132660 
	C353.999878,452.281128 335.547089,461.088989 315.791809,466.453979 
	C303.424652,469.812531 290.616516,471.546204 278.008789,474.021820 
	C276.577759,474.302795 275.163086,474.667236 272.860657,475.043640 
	C258.015900,475.119080 244.051346,475.143829 230.086807,475.168579 
	C222.355118,473.793243 214.576157,472.637726 206.903549,470.987671 
	C197.047562,468.868073 187.105515,466.895508 177.511719,463.872162 
	C164.634918,459.814240 152.140549,454.712372 140.861786,446.951447 
	C135.027924,442.937103 128.293503,440.183075 122.657867,435.940521 
	C114.172447,429.552582 106.242622,422.418365 98.167984,415.494812 
	C83.416328,402.846069 71.344879,387.858337 61.088406,371.472351 
	C47.022278,348.999939 36.582176,324.955566 32.062408,298.665039 
	C30.344891,288.674622 29.364958,278.557892 27.998892,268.505554 
	C27.871258,267.566345 27.382553,266.676270 27.002728,264.883423 
	C26.908543,255.028168 26.873123,246.052841 26.837704,237.077499 
M314.049072,450.534912 
	C322.734222,447.197083 331.680969,444.406403 340.049469,440.406128 
	C356.852753,432.374023 373.031128,423.131531 386.442932,409.944824 
	C397.151184,399.416229 408.296112,389.139984 417.642853,377.467041 
	C429.268402,362.948151 438.069855,346.499023 445.043335,329.099396 
	C454.112488,306.470795 458.691833,282.952423 459.886230,258.743683 
	C460.243896,251.493805 459.589233,244.157410 458.930054,236.903198 
	C458.094421,227.707886 457.469757,218.408844 455.547607,209.412308 
	C449.193390,179.671448 437.290894,152.382980 419.038208,127.817017 
	C407.451477,112.222656 394.251221,98.255867 378.966095,86.492569 
	C363.355316,74.478661 346.101562,65.135162 327.735809,57.660122 
	C303.493805,47.793392 278.323456,43.820709 252.386810,42.938648 
	C231.674179,42.234249 211.558456,45.537388 191.806793,51.229065 
	C171.815613,56.989765 153.042831,65.651840 135.716370,77.193344 
	C129.677277,81.216125 124.207413,86.099106 118.518967,90.641068 
	C113.286034,94.819344 107.692642,98.656822 103.018791,103.394890 
	C97.897644,108.586372 93.492775,114.519333 89.057953,120.344040 
	C83.618973,127.487610 77.781967,134.461441 73.371544,142.221649 
	C67.651634,152.285919 62.889706,162.930222 58.210808,173.543228 
	C48.294720,196.035522 44.083553,219.904434 43.102158,244.256393 
	C42.658298,255.270081 43.615711,266.463928 45.167160,277.401611 
	C46.928383,289.818268 49.536201,302.179596 52.740910,314.310028 
	C56.608753,328.950623 63.415192,342.415588 70.600586,355.777527 
	C78.052956,369.635925 87.319382,382.065948 97.970245,393.349030 
	C106.317932,402.192169 115.883812,409.941284 125.286888,417.718933 
	C138.825287,428.917084 154.149841,437.450165 170.337692,443.945770 
	C187.496536,450.830994 205.287186,455.686951 223.821060,458.226349 
	C243.773895,460.960175 263.522308,460.225128 283.244354,457.697662 
	C293.428253,456.392578 303.372009,453.213867 314.049072,450.534912 
z"/>
<path fill="#DFDBC0" opacity="1.000000" stroke="none" 
	d="
M230.407822,475.414124 
	C244.051346,475.143829 258.015900,475.119080 272.440125,475.143372 
	C265.730560,475.756561 258.565796,476.690887 251.390701,476.778412 
	C244.508987,476.862427 237.616562,476.068054 230.407822,475.414124 
z"/>
<path fill="#DDD7BC" opacity="1.000000" stroke="none" 
	d="
M26.559849,237.378525 
	C26.873123,246.052841 26.908543,255.028168 26.897171,264.465393 
	C26.660921,255.844727 26.471458,246.762131 26.559849,237.378525 
z"/>
<path fill="#DED2BC" opacity="1.000000" stroke="none" 
	d="
M264.633240,26.588070 
	C256.291321,26.896954 247.646622,26.929590 238.543243,26.894188 
	C246.833206,26.654707 255.581818,26.483265 264.633240,26.588070 
z"/>
<path fill="#4E4841" opacity="1.000000" stroke="none" 
	d="
M313.736694,450.708313 
	C303.372009,453.213867 293.428253,456.392578 283.244354,457.697662 
	C263.522308,460.225128 243.773895,460.960175 223.821060,458.226349 
	C205.287186,455.686951 187.496536,450.830994 170.337692,443.945770 
	C154.149841,437.450165 138.825287,428.917084 125.286888,417.718933 
	C115.883812,409.941284 106.317932,402.192169 97.970245,393.349030 
	C87.319382,382.065948 78.052956,369.635925 70.600586,355.777527 
	C63.415192,342.415588 56.608753,328.950623 52.740910,314.310028 
	C49.536201,302.179596 46.928383,289.818268 45.167160,277.401611 
	C43.615711,266.463928 42.658298,255.270081 43.102158,244.256393 
	C44.083553,219.904434 48.294720,196.035522 58.210808,173.543228 
	C62.889706,162.930222 67.651634,152.285919 73.371544,142.221649 
	C77.781967,134.461441 83.618973,127.487610 89.057953,120.344040 
	C93.492775,114.519333 97.897644,108.586372 103.018791,103.394890 
	C107.692642,98.656822 113.286034,94.819344 118.518967,90.641068 
	C124.207413,86.099106 129.677277,81.216125 135.716370,77.193344 
	C153.042831,65.651840 171.815613,56.989765 191.806793,51.229065 
	C211.558456,45.537388 231.674179,42.234249 252.386810,42.938648 
	C278.323456,43.820709 303.493805,47.793392 327.735809,57.660122 
	C346.101562,65.135162 363.355316,74.478661 378.966095,86.492569 
	C394.251221,98.255867 407.451477,112.222656 419.038208,127.817017 
	C437.290894,152.382980 449.193390,179.671448 455.547607,209.412308 
	C457.469757,218.408844 458.094421,227.707886 458.930054,236.903198 
	C459.589233,244.157410 460.243896,251.493805 459.886230,258.743683 
	C458.691833,282.952423 454.112488,306.470795 445.043335,329.099396 
	C438.069855,346.499023 429.268402,362.948151 417.642853,377.467041 
	C408.296112,389.139984 397.151184,399.416229 386.442932,409.944824 
	C373.031128,423.131531 356.852753,432.374023 340.049469,440.406128 
	C331.680969,444.406403 322.734222,447.197083 313.736694,450.708313 
M307.002594,313.001251 
	C307.002594,313.001251 307.004883,313.066498 306.535675,312.354614 
	C301.713684,312.545929 296.891724,312.737244 291.573364,313.044189 
	C291.404266,313.028046 291.235138,313.011871 290.124603,312.897827 
	C278.729889,312.930756 267.335175,312.963715 255.548721,313.119598 
	C255.548721,313.119598 255.138168,313.121246 254.765289,312.591980 
	C253.879608,312.993896 252.993912,313.395813 251.204926,313.965302 
	C247.809174,313.693451 244.413437,313.421600 240.473160,312.502716 
	C230.726120,312.593842 220.979080,312.684937 210.276230,312.924896 
	C203.342178,312.924896 196.408112,312.924896 188.299591,312.924896 
	C190.285767,320.898956 191.956680,328.009247 193.922821,335.036865 
	C194.195435,336.011230 195.875687,336.663208 196.990372,337.317810 
	C201.270889,339.831818 205.586426,342.286163 210.778168,345.274597 
	C199.869019,345.274597 190.138458,345.274597 180.407898,345.274597 
	C180.366333,345.680389 180.324753,346.086212 180.283188,346.492004 
	C198.113480,347.997498 215.943787,349.502960 234.743362,350.976013 
	C243.799301,350.981049 252.855255,350.986084 262.738312,350.993042 
	C266.282959,350.926636 269.850098,351.090668 273.367706,350.747223 
	C281.380249,349.964844 289.367218,348.922424 297.367004,348.006989 
	C303.239777,347.334930 309.116394,346.696655 314.991302,346.043365 
	C314.943268,345.774323 314.895264,345.505310 314.847229,345.236267 
	C305.457794,345.236267 296.068359,345.236267 286.678955,345.236267 
	C291.255402,341.582520 296.157166,338.798920 301.018707,335.946716 
	C302.059662,335.336029 303.594696,334.629578 303.814545,333.707825 
	C305.368500,327.193207 306.638672,320.610901 307.799042,313.561035 
	C307.512146,313.378326 307.225281,313.195618 307.002594,313.001251 
M266.331360,393.236481 
	C257.570282,393.158905 248.809219,393.081329 239.262878,393.302551 
	C234.814407,393.502808 230.365921,393.703064 225.360046,393.300171 
	C206.799316,393.197998 188.238632,393.087708 169.677734,393.033722 
	C169.135925,393.032166 168.592361,393.625916 167.370621,393.975952 
	C166.552750,393.975952 165.734879,393.975952 164.917007,393.975952 
	C167.283920,395.944427 170.020844,396.719177 172.646759,397.771057 
	C173.549164,398.132538 174.924469,399.352539 174.803848,399.896515 
	C174.046158,403.313873 172.927353,406.651154 171.397842,410.544952 
	C170.978180,414.706848 174.240570,412.901825 175.765396,412.905243 
	C223.998657,413.013763 272.232208,413.006439 320.465668,412.951477 
	C321.980957,412.949738 323.495453,412.258942 324.909241,411.112976 
	C323.998444,406.729736 323.087677,402.346497 322.147919,397.823761 
	C326.247986,396.656250 329.646362,395.688538 333.044739,394.720825 
	C332.980377,394.444153 332.916046,394.167480 332.851685,393.890808 
	C330.537506,393.890808 328.223328,393.890808 325.342499,393.300476 
	C313.302582,393.204498 301.262756,393.092194 289.222656,393.053101 
	C288.499969,393.050751 287.775360,393.633087 286.678070,394.058502 
	C286.678070,394.058502 286.287476,394.042786 285.500061,393.986084 
	C285.237579,394.005005 284.975128,394.023895 284.321960,394.058472 
	C284.321960,394.058472 283.948303,393.943329 283.385712,393.348785 
	C278.956146,393.526978 274.526581,393.705170 269.286011,393.957031 
	C268.473145,393.929474 267.660309,393.901917 266.331360,393.236481 
M345.695129,179.365967 
	C345.793457,170.411942 345.924896,161.457947 345.935944,152.503815 
	C345.937012,151.662094 345.179810,150.819427 344.151947,149.736832 
	C341.644928,148.675125 339.211548,146.946030 336.618958,146.660019 
	C319.752075,144.799194 302.865326,143.075912 285.955139,141.666168 
	C275.381989,140.784698 264.754456,140.060593 254.155075,140.107910 
	C239.392624,140.173798 224.596695,140.543457 209.882782,141.668472 
	C192.074356,143.030106 174.329483,145.254456 156.580139,147.304855 
	C154.947830,147.493408 153.482178,149.124466 151.246384,150.559174 
	C151.163925,157.299911 150.974396,164.041748 151.044266,170.780899 
	C151.079071,174.138092 151.588974,177.490356 152.220337,181.504471 
	C153.571411,182.324585 154.964584,183.910828 156.266663,183.839294 
	C164.140198,183.406693 171.993362,182.600052 179.852509,181.909042 
	C190.816010,180.945084 201.763382,179.452789 212.745544,179.127151 
	C228.854614,178.649506 244.988388,179.015488 261.111603,178.996063 
	C265.344025,178.990967 269.586853,178.673004 273.806488,178.878128 
	C282.878265,179.319107 291.943817,179.929916 301.001282,180.612839 
	C312.715179,181.496094 324.408325,182.703079 336.133514,183.356567 
	C339.293121,183.532669 343.618530,184.926132 345.695129,179.365967 
M372.355164,265.364319 
	C372.900543,263.843292 373.886261,262.331268 373.917419,260.799805 
	C374.078796,252.866653 373.996277,244.928574 374.040710,236.218338 
	C375.801270,235.146988 377.464783,233.427673 379.343628,233.146225 
	C382.710693,232.641876 386.284424,233.449341 389.627502,232.872482 
	C392.782349,232.328125 394.541870,233.436523 395.964325,236.788818 
	C395.978577,246.273743 395.944794,255.759186 396.047668,265.243164 
	C396.068268,267.139893 396.609863,269.031006 396.947449,271.637329 
	C395.118225,272.927368 393.402496,275.080658 391.437622,275.339020 
	C386.370300,276.005310 381.170044,275.612823 376.073822,276.137817 
	C374.631378,276.286407 372.416168,277.961578 372.180054,279.237335 
	C371.132172,284.898926 370.744720,290.679047 369.990051,296.399384 
	C368.203247,309.943726 366.412628,323.488342 364.485016,337.013092 
	C363.474548,344.102631 362.172119,351.150543 361.001526,358.217285 
	C361.575439,358.386261 362.149353,358.555237 362.723267,358.724213 
	C366.071960,348.703003 369.420654,338.681793 372.907562,328.246918 
	C374.334442,329.902039 375.684387,331.467926 376.955536,333.963989 
	C376.970764,346.687439 376.985992,359.410858 377.013184,372.909119 
	C376.282471,374.852722 375.550903,376.795990 374.821289,378.739990 
	C373.863586,381.291901 372.525116,383.772583 372.029755,386.411469 
	C370.978302,392.012726 370.366241,397.696442 369.540436,403.586121 
	C401.369507,378.001343 424.446686,346.695831 436.321777,307.408722 
	C448.415222,267.399078 447.531067,227.718842 433.830597,188.422195 
	C406.456451,109.905624 325.899628,48.170738 227.462433,59.652405 
	C150.215454,68.662460 65.500305,132.949295 58.328110,240.377457 
	C55.452866,283.444031 67.068726,323.412323 90.908356,359.494385 
	C100.284698,373.685791 111.208481,386.680237 125.691772,397.468811 
	C126.219444,391.073547 125.970032,386.139954 123.013298,381.261414 
	C120.946251,377.850800 119.285942,373.666077 119.095940,369.747009 
	C118.580200,359.108887 119.070976,348.426086 118.898392,337.765259 
	C118.825645,333.272095 120.976173,330.444855 124.519875,327.654297 
	C127.517509,337.058472 127.876709,346.948517 134.547760,354.489227 
	C131.104050,328.457031 127.660324,302.424835 124.163979,275.994781 
	C118.921989,275.994781 113.615509,275.995544 108.309021,275.994507 
	C104.939377,275.993835 101.729195,275.648621 100.073830,271.169250 
	C100.051628,259.359436 100.029419,247.549606 99.945175,234.936966 
	C101.277084,234.284531 102.581978,233.145691 103.945930,233.069916 
	C108.222786,232.832306 112.541000,233.246292 116.806244,232.922012 
	C120.113495,232.670563 122.175255,233.592529 122.946480,237.822449 
	C122.971130,243.553223 122.898399,249.286697 123.057938,255.013718 
	C123.149719,258.308502 123.617561,261.592804 124.259285,265.475647 
	C126.253845,266.851654 128.213531,267.250061 129.650833,264.816742 
	C131.198608,262.196381 133.099579,259.619263 133.913315,256.757904 
	C138.655441,240.083328 142.990112,223.291962 147.841370,206.650497 
	C148.496155,204.404404 150.962631,201.684998 153.135208,201.050247 
	C164.634918,197.690521 176.308929,194.927444 187.717178,192.010071 
	C186.030365,192.010071 184.038788,191.874298 182.070984,192.033142 
	C172.601395,192.797531 163.068954,193.195465 153.702667,194.649796 
	C149.183212,195.351532 144.203522,197.055283 142.381302,202.385468 
	C140.832565,206.915756 139.444107,211.501160 138.007599,216.069366 
	C136.075546,222.213455 134.165421,228.364456 132.245895,234.512482 
	C130.998886,226.370239 130.252594,218.515442 130.072540,210.647690 
	C129.574387,188.878082 129.254562,167.103561 129.077759,145.329239 
	C129.064957,143.753860 130.393082,141.447983 131.756683,140.725677 
	C134.931656,139.043854 138.417206,137.623611 141.938568,136.974762 
	C160.613571,133.533722 179.383804,130.846725 198.452637,130.879425 
	C199.656158,130.881485 201.385864,129.491211 201.953735,128.308411 
	C202.992218,126.145386 203.127274,123.565529 204.031540,121.317360 
	C205.562119,117.512016 207.397949,113.829460 209.626038,110.735199 
	C211.276199,110.821556 212.926331,110.982155 214.576538,110.983124 
	C239.149002,110.997597 263.721466,110.990967 288.917328,111.283653 
	C290.659637,116.320793 292.800995,121.264786 294.005920,126.427338 
	C294.829163,129.954697 296.404602,131.175613 299.751343,130.955795 
	C302.612549,130.767899 305.508881,130.469879 308.348022,130.710983 
	C317.074615,131.452072 325.875671,131.904221 334.470306,133.453323 
	C344.058716,135.181549 353.502594,137.809082 362.905914,140.417938 
	C366.573975,141.435608 368.326324,144.323273 368.047913,148.457794 
	C367.547241,155.893173 367.233063,163.346970 367.070953,170.798096 
	C366.648071,190.238129 366.361755,209.681107 365.977386,229.122055 
	C365.947723,230.623489 365.577087,232.118195 365.364899,233.616013 
	C361.232544,223.817017 358.600983,213.825867 354.757019,204.325226 
	C353.379608,200.920853 349.468292,197.099564 346.029785,196.256287 
	C337.549530,194.176559 328.680359,193.651093 319.952606,192.628265 
	C316.616699,192.237320 313.240051,192.193802 309.881989,191.991959 
	C310.210571,193.283783 310.553802,193.743790 310.974640,193.831512 
	C321.008392,195.922928 331.084900,197.823700 341.075714,200.100800 
	C345.634064,201.139755 348.908783,204.033295 350.163177,208.817596 
	C353.456421,221.377930 356.587402,233.985733 360.172150,246.462814 
	C362.210144,253.556320 361.822632,261.914276 369.662415,266.491669 
	C370.285736,266.045868 371.081451,265.476746 372.355164,265.364319 
M354.144440,260.208618 
	C354.405060,259.440918 355.034027,258.583405 354.872040,257.918701 
	C351.509827,244.122849 348.220001,230.305161 344.525238,216.597076 
	C343.408600,212.454208 339.970428,210.479004 335.509491,210.052094 
	C315.238861,208.112198 295.020996,205.414017 274.711884,204.146469 
	C257.691071,203.084152 240.565567,203.309586 223.495514,203.567383 
	C212.797119,203.728958 202.093597,204.784775 191.432877,205.846039 
	C181.645538,206.820328 171.853348,208.018356 162.188187,209.796600 
	C158.899902,210.401581 154.197937,209.739822 152.930450,214.872864 
	C149.375458,229.269897 145.496307,243.590439 142.177338,258.040436 
	C140.832047,263.897614 143.049530,266.275238 149.005585,265.878754 
	C152.277069,265.661011 154.158096,266.759705 155.914612,269.200256 
	C159.551987,274.253998 163.231674,279.285950 167.109161,284.155487 
	C170.126770,287.945160 173.470062,291.475464 176.668594,295.121063 
	C177.037262,294.807098 177.405930,294.493134 177.774597,294.179169 
	C174.238968,287.956879 170.713974,281.728516 167.155182,275.519501 
	C166.671402,274.675446 166.055008,273.898529 165.437683,273.141296 
	C161.537308,268.357025 162.508698,263.496490 167.683121,262.962128 
	C182.684998,261.412994 197.705200,260.029755 212.732224,258.745209 
	C216.099945,258.457275 219.534515,259.034576 222.921295,258.868042 
	C229.291962,258.554779 235.653732,257.568054 242.012939,257.620514 
	C253.869034,257.718262 265.722107,258.322540 277.573608,258.787994 
	C285.066681,259.082214 292.557495,259.457001 300.044006,259.888123 
	C306.385498,260.253357 312.763519,260.429077 319.043030,261.289612 
	C324.343475,262.015991 329.525726,263.604980 335.473572,264.976624 
	C330.080261,274.548218 325.170441,283.261719 320.260620,291.975250 
	C320.668243,292.270081 321.075867,292.564880 321.483459,292.859711 
	C323.205200,290.451874 324.779114,287.919769 326.678040,285.660858 
	C331.250000,280.222351 335.858185,274.803375 340.706116,269.614227 
	C342.200134,268.015045 344.407837,266.922455 346.481628,266.063751 
	C349.385468,264.861298 353.502075,265.617157 354.144440,260.208618 
M172.469284,334.085785 
	C175.057358,334.325775 177.768112,335.122925 180.186157,334.590576 
	C181.570847,334.285706 183.706665,331.459564 183.392273,330.388580 
	C181.968994,325.540131 179.930511,320.848999 177.801086,316.245789 
	C177.192322,314.929779 175.578918,313.242889 174.351028,313.179352 
	C163.273956,312.606476 152.181015,312.289551 141.089539,312.149689 
	C140.260788,312.139221 138.650650,314.114075 138.701218,315.099457 
	C138.885651,318.692474 139.333389,322.331024 140.227081,325.812439 
	C141.171112,329.489929 143.252975,331.684387 147.789062,331.817505 
	C155.757187,332.051392 163.698380,333.202148 172.469284,334.085785 
M316.152374,322.719391 
	C315.504333,324.408783 314.746765,326.065277 314.227814,327.793457 
	C312.317200,334.155945 314.025085,335.895233 320.639618,334.959412 
	C328.711823,333.817291 336.809113,332.785309 344.926605,332.047791 
	C354.267212,331.199188 355.862640,330.055481 357.791534,321.157867 
	C358.034149,320.038940 357.895844,318.841095 357.976135,317.682709 
	C358.380371,311.850586 357.892883,311.561493 352.068604,311.968018 
	C344.524445,312.494568 336.955750,312.928619 329.397552,312.929596 
	C319.593750,312.930878 319.373199,312.884857 316.152374,322.719391 
z"/>
<path fill="#000000" opacity="1.000000" stroke="none" 
	d="
M122.991226,236.868851 
	C122.175255,233.592529 120.113495,232.670563 116.806244,232.922012 
	C112.541000,233.246292 108.222786,232.832306 103.945930,233.069916 
	C102.581978,233.145691 101.277084,234.284531 99.592361,235.577652 
	C99.156738,247.521301 99.056602,258.824249 99.035057,270.127319 
	C99.033791,270.791138 99.666626,271.456146 100.004387,272.120605 
	C101.729195,275.648621 104.939377,275.993835 108.309021,275.994507 
	C113.615509,275.995544 118.921989,275.994781 124.163979,275.994781 
	C127.660324,302.424835 131.104050,328.457031 134.547760,354.489227 
	C127.876709,346.948517 127.517509,337.058472 124.519875,327.654297 
	C120.976173,330.444855 118.825645,333.272095 118.898392,337.765259 
	C119.070976,348.426086 118.580200,359.108887 119.095940,369.747009 
	C119.285942,373.666077 120.946251,377.850800 123.013298,381.261414 
	C125.970032,386.139954 126.219444,391.073547 125.691772,397.468811 
	C111.208481,386.680237 100.284698,373.685791 90.908356,359.494385 
	C67.068726,323.412323 55.452866,283.444031 58.328110,240.377457 
	C65.500305,132.949295 150.215454,68.662460 227.462433,59.652405 
	C325.899628,48.170738 406.456451,109.905624 433.830597,188.422195 
	C447.531067,227.718842 448.415222,267.399078 436.321777,307.408722 
	C424.446686,346.695831 401.369507,378.001343 369.540436,403.586121 
	C370.366241,397.696442 370.978302,392.012726 372.029755,386.411469 
	C372.525116,383.772583 373.863586,381.291901 374.821289,378.739990 
	C375.550903,376.795990 376.282471,374.852722 377.412872,372.329651 
	C377.877197,359.316345 377.952576,346.882446 377.965118,334.448547 
	C377.965607,333.977264 377.358368,333.505402 377.034332,333.033844 
	C375.684387,331.467926 374.334442,329.902039 372.907562,328.246918 
	C369.420654,338.681793 366.071960,348.703003 362.723267,358.724213 
	C362.149353,358.555237 361.575439,358.386261 361.001526,358.217285 
	C362.172119,351.150543 363.474548,344.102631 364.485016,337.013092 
	C366.412628,323.488342 368.203247,309.943726 369.990051,296.399384 
	C370.744720,290.679047 371.132172,284.898926 372.180054,279.237335 
	C372.416168,277.961578 374.631378,276.286407 376.073822,276.137817 
	C381.170044,275.612823 386.370300,276.005310 391.437622,275.339020 
	C393.402496,275.080658 395.118225,272.927368 396.974548,270.820251 
	C396.996948,260.110168 397.032471,250.216782 396.944672,240.324493 
	C396.931335,238.822876 396.345459,237.326340 396.024414,235.827438 
	C394.541870,233.436523 392.782349,232.328125 389.627502,232.872482 
	C386.284424,233.449341 382.710693,232.641876 379.343628,233.146225 
	C377.464783,233.427673 375.801270,235.146988 373.659515,236.777710 
	C373.145111,241.826813 373.087555,246.320435 372.857880,250.805222 
	C372.616943,255.510437 372.210999,260.207184 371.877136,264.907654 
	C371.081451,265.476746 370.285736,266.045868 369.662415,266.491669 
	C361.822632,261.914276 362.210144,253.556320 360.172150,246.462814 
	C356.587402,233.985733 353.456421,221.377930 350.163177,208.817596 
	C348.908783,204.033295 345.634064,201.139755 341.075714,200.100800 
	C331.084900,197.823700 321.008392,195.922928 310.974640,193.831512 
	C310.553802,193.743790 310.210571,193.283783 309.881989,191.991959 
	C313.240051,192.193802 316.616699,192.237320 319.952606,192.628265 
	C328.680359,193.651093 337.549530,194.176559 346.029785,196.256287 
	C349.468292,197.099564 353.379608,200.920853 354.757019,204.325226 
	C358.600983,213.825867 361.232544,223.817017 365.364899,233.616013 
	C365.577087,232.118195 365.947723,230.623489 365.977386,229.122055 
	C366.361755,209.681107 366.648071,190.238129 367.070953,170.798096 
	C367.233063,163.346970 367.547241,155.893173 368.047913,148.457794 
	C368.326324,144.323273 366.573975,141.435608 362.905914,140.417938 
	C353.502594,137.809082 344.058716,135.181549 334.470306,133.453323 
	C325.875671,131.904221 317.074615,131.452072 308.348022,130.710983 
	C305.508881,130.469879 302.612549,130.767899 299.751343,130.955795 
	C296.404602,131.175613 294.829163,129.954697 294.005920,126.427338 
	C292.800995,121.264786 290.659637,116.320793 288.351746,110.761368 
	C261.559265,110.191147 235.332352,110.143211 209.105453,110.095276 
	C207.397949,113.829460 205.562119,117.512016 204.031540,121.317360 
	C203.127274,123.565529 202.992218,126.145386 201.953735,128.308411 
	C201.385864,129.491211 199.656158,130.881485 198.452637,130.879425 
	C179.383804,130.846725 160.613571,133.533722 141.938568,136.974762 
	C138.417206,137.623611 134.931656,139.043854 131.756683,140.725677 
	C130.393082,141.447983 129.064957,143.753860 129.077759,145.329239 
	C129.254562,167.103561 129.574387,188.878082 130.072540,210.647690 
	C130.252594,218.515442 130.998886,226.370239 132.245895,234.512482 
	C134.165421,228.364456 136.075546,222.213455 138.007599,216.069366 
	C139.444107,211.501160 140.832565,206.915756 142.381302,202.385468 
	C144.203522,197.055283 149.183212,195.351532 153.702667,194.649796 
	C163.068954,193.195465 172.601395,192.797531 182.070984,192.033142 
	C184.038788,191.874298 186.030365,192.010071 187.717178,192.010071 
	C176.308929,194.927444 164.634918,197.690521 153.135208,201.050247 
	C150.962631,201.684998 148.496155,204.404404 147.841370,206.650497 
	C142.990112,223.291962 138.655441,240.083328 133.913315,256.757904 
	C133.099579,259.619263 131.198608,262.196381 129.650833,264.816742 
	C128.213531,267.250061 126.253845,266.851654 124.125015,264.719055 
	C123.995209,256.227448 124.046265,248.491837 123.958557,240.757828 
	C123.943810,239.458008 123.328857,238.165009 122.991226,236.868851 
z"/>
<path fill="#000000" opacity="1.000000" stroke="none" 
	d="
M354.053894,260.559204 
	C353.502075,265.617157 349.385468,264.861298 346.481628,266.063751 
	C344.407837,266.922455 342.200134,268.015045 340.706116,269.614227 
	C335.858185,274.803375 331.250000,280.222351 326.678040,285.660858 
	C324.779114,287.919769 323.205200,290.451874 321.483459,292.859711 
	C321.075867,292.564880 320.668243,292.270081 320.260620,291.975250 
	C325.170441,283.261719 330.080261,274.548218 335.473572,264.976624 
	C329.525726,263.604980 324.343475,262.015991 319.043030,261.289612 
	C312.763519,260.429077 306.385498,260.253357 300.044006,259.888123 
	C292.557495,259.457001 285.066681,259.082214 277.573608,258.787994 
	C265.722107,258.322540 253.869034,257.718262 242.012939,257.620514 
	C235.653732,257.568054 229.291962,258.554779 222.921295,258.868042 
	C219.534515,259.034576 216.099945,258.457275 212.732224,258.745209 
	C197.705200,260.029755 182.684998,261.412994 167.683121,262.962128 
	C162.508698,263.496490 161.537308,268.357025 165.437683,273.141296 
	C166.055008,273.898529 166.671402,274.675446 167.155182,275.519501 
	C170.713974,281.728516 174.238968,287.956879 177.774597,294.179169 
	C177.405930,294.493134 177.037262,294.807098 176.668594,295.121063 
	C173.470062,291.475464 170.126770,287.945160 167.109161,284.155487 
	C163.231674,279.285950 159.551987,274.253998 155.914612,269.200256 
	C154.158096,266.759705 152.277069,265.661011 149.005585,265.878754 
	C143.049530,266.275238 140.832047,263.897614 142.177338,258.040436 
	C145.496307,243.590439 149.375458,229.269897 152.930450,214.872864 
	C154.197937,209.739822 158.899902,210.401581 162.188187,209.796600 
	C171.853348,208.018356 181.645538,206.820328 191.432877,205.846039 
	C202.093597,204.784775 212.797119,203.728958 223.495514,203.567383 
	C240.565567,203.309586 257.691071,203.084152 274.711884,204.146469 
	C295.020996,205.414017 315.238861,208.112198 335.509491,210.052094 
	C339.970428,210.479004 343.408600,212.454208 344.525238,216.597076 
	C348.220001,230.305161 351.509827,244.122849 354.872040,257.918701 
	C355.034027,258.583405 354.405060,259.440918 354.053894,260.559204 
z"/>
<path fill="#000000" opacity="1.000000" stroke="none" 
	d="
M151.939133,150.085709 
	C153.482178,149.124466 154.947830,147.493408 156.580139,147.304855 
	C174.329483,145.254456 192.074356,143.030106 209.882782,141.668472 
	C224.596695,140.543457 239.392624,140.173798 254.155075,140.107910 
	C264.754456,140.060593 275.381989,140.784698 285.955139,141.666168 
	C302.865326,143.075912 319.752075,144.799194 336.618958,146.660019 
	C339.211548,146.946030 341.644928,148.675125 344.569305,150.318085 
	C345.017822,160.570786 345.048981,170.242249 345.080139,179.913696 
	C343.618530,184.926132 339.293121,183.532669 336.133514,183.356567 
	C324.408325,182.703079 312.715179,181.496094 301.001282,180.612839 
	C291.943817,179.929916 282.878265,179.319107 273.806488,178.878128 
	C269.586853,178.673004 265.344025,178.990967 261.111603,178.996063 
	C244.988388,179.015488 228.854614,178.649506 212.745544,179.127151 
	C201.763382,179.452789 190.816010,180.945084 179.852509,181.909042 
	C171.993362,182.600052 164.140198,183.406693 156.266663,183.839294 
	C154.964584,183.910828 153.571411,182.324585 152.087585,180.717468 
	C151.949615,169.982224 151.944366,160.033966 151.939133,150.085709 
z"/>
<path fill="#000000" opacity="1.000000" stroke="none" 
	d="
M241.017685,313.149750 
	C244.413437,313.421600 247.809174,313.693451 251.985397,313.922516 
	C253.556625,313.626892 254.347397,313.374054 255.138168,313.121246 
	C255.138168,313.121246 255.548721,313.119598 255.930237,313.461060 
	C267.245270,313.867157 278.178772,313.949158 289.112335,313.953247 
	C289.763428,313.953491 290.414795,313.329346 291.066040,312.995728 
	C291.235138,313.011871 291.404266,313.028046 292.281372,313.006531 
	C297.661224,313.001434 302.333069,313.033966 307.004883,313.066498 
	C307.004883,313.066498 307.002594,313.001251 307.057190,313.259094 
	C307.407654,313.694702 307.703522,313.872437 307.999390,314.050171 
	C306.638672,320.610901 305.368500,327.193207 303.814545,333.707825 
	C303.594696,334.629578 302.059662,335.336029 301.018707,335.946716 
	C296.157166,338.798920 291.255402,341.582520 286.678955,345.236267 
	C296.068359,345.236267 305.457794,345.236267 314.847229,345.236267 
	C314.895264,345.505310 314.943268,345.774323 314.991302,346.043365 
	C309.116394,346.696655 303.239777,347.334930 297.367004,348.006989 
	C289.367218,348.922424 281.380249,349.964844 273.367706,350.747223 
	C269.850098,351.090668 266.282959,350.926636 262.141479,350.601807 
	C254.450577,350.138245 247.355774,349.983368 240.262787,350.043243 
	C238.097321,350.061493 235.936844,350.670166 233.774078,351.008453 
	C215.943787,349.502960 198.113480,347.997498 180.283188,346.492004 
	C180.324753,346.086212 180.366333,345.680389 180.407898,345.274597 
	C190.138458,345.274597 199.869019,345.274597 210.778168,345.274597 
	C205.586426,342.286163 201.270889,339.831818 196.990372,337.317810 
	C195.875687,336.663208 194.195435,336.011230 193.922821,335.036865 
	C191.956680,328.009247 190.285767,320.898956 188.299591,312.924896 
	C196.408112,312.924896 203.342178,312.924896 211.204346,312.887817 
	C221.760880,312.950439 231.389282,313.050079 241.017685,313.149750 
z"/>
<path fill="#000000" opacity="1.000000" stroke="none" 
	d="
M171.927948,410.014893 
	C172.927353,406.651154 174.046158,403.313873 174.803848,399.896515 
	C174.924469,399.352539 173.549164,398.132538 172.646759,397.771057 
	C170.020844,396.719177 167.283920,395.944427 164.917007,393.975952 
	C165.734879,393.975952 166.552750,393.975952 168.171646,394.019897 
	C187.954269,394.010345 206.935852,393.956848 225.917450,393.903320 
	C230.365921,393.703064 234.814407,393.502808 239.837524,393.547852 
	C249.223938,393.820190 258.035706,393.847260 266.847443,393.874329 
	C267.660309,393.901917 268.473145,393.929474 270.145325,393.974915 
	C275.319214,393.976288 279.633759,393.959808 283.948303,393.943329 
	C283.948303,393.943329 284.321960,394.058472 284.686829,394.260529 
	C285.463623,394.322662 285.875549,394.182709 286.287476,394.042786 
	C286.287476,394.042786 286.678070,394.058502 287.328674,394.022461 
	C300.622559,393.954559 313.265869,393.922668 325.909149,393.890808 
	C328.223328,393.890808 330.537506,393.890808 332.851685,393.890808 
	C332.916046,394.167480 332.980377,394.444153 333.044739,394.720825 
	C329.646362,395.688538 326.247986,396.656250 322.147919,397.823761 
	C323.087677,402.346497 323.998444,406.729736 324.492340,411.548981 
	C300.651367,411.989441 277.227264,411.995239 253.803192,411.997925 
	C228.053284,412.000885 202.303207,412.035217 176.553833,411.917328 
	C175.009003,411.910248 173.469772,410.677399 171.927948,410.014893 
z"/>
<path fill="#000000" opacity="1.000000" stroke="none" 
	d="
M172.060074,334.027344 
	C163.698380,333.202148 155.757187,332.051392 147.789062,331.817505 
	C143.252975,331.684387 141.171112,329.489929 140.227081,325.812439 
	C139.333389,322.331024 138.885651,318.692474 138.701218,315.099457 
	C138.650650,314.114075 140.260788,312.139221 141.089539,312.149689 
	C152.181015,312.289551 163.273956,312.606476 174.351028,313.179352 
	C175.578918,313.242889 177.192322,314.929779 177.801086,316.245789 
	C179.930511,320.848999 181.968994,325.540131 183.392273,330.388580 
	C183.706665,331.459564 181.570847,334.285706 180.186157,334.590576 
	C177.768112,335.122925 175.057358,334.325775 172.060074,334.027344 
z"/>
<path fill="#000000" opacity="1.000000" stroke="none" 
	d="
M316.330750,322.369812 
	C319.373199,312.884857 319.593750,312.930878 329.397552,312.929596 
	C336.955750,312.928619 344.524445,312.494568 352.068604,311.968018 
	C357.892883,311.561493 358.380371,311.850586 357.976135,317.682709 
	C357.895844,318.841095 358.034149,320.038940 357.791534,321.157867 
	C355.862640,330.055481 354.267212,331.199188 344.926605,332.047791 
	C336.809113,332.785309 328.711823,333.817291 320.639618,334.959412 
	C314.025085,335.895233 312.317200,334.155945 314.227814,327.793457 
	C314.746765,326.065277 315.504333,324.408783 316.330750,322.369812 
z"/>
<path fill="#9A9287" opacity="1.000000" stroke="none" 
	d="
M171.662888,410.279938 
	C173.469772,410.677399 175.009003,411.910248 176.553833,411.917328 
	C202.303207,412.035217 228.053284,412.000885 253.803192,411.997925 
	C277.227264,411.995239 300.651367,411.989441 324.542877,411.937195 
	C323.495453,412.258942 321.980957,412.949738 320.465668,412.951477 
	C272.232208,413.006439 223.998657,413.013763 175.765396,412.905243 
	C174.240570,412.901825 170.978180,414.706848 171.662888,410.279938 
z"/>
<path fill="#9A9386" opacity="1.000000" stroke="none" 
	d="
M209.365753,110.415237 
	C235.332352,110.143211 261.559265,110.191147 288.040039,110.614197 
	C263.721466,110.990967 239.149002,110.997597 214.576538,110.983124 
	C212.926331,110.982155 211.276199,110.821556 209.365753,110.415237 
z"/>
<path fill="#776E61" opacity="1.000000" stroke="none" 
	d="
M225.638748,393.601746 
	C206.935852,393.956848 187.954269,394.010345 168.511139,394.002930 
	C168.592361,393.625916 169.135925,393.032166 169.677734,393.033722 
	C188.238632,393.087708 206.799316,393.197998 225.638748,393.601746 
z"/>
<path fill="#8E877B" opacity="1.000000" stroke="none" 
	d="
M372.116150,265.135986 
	C372.210999,260.207184 372.616943,255.510437 372.857880,250.805222 
	C373.087555,246.320435 373.145111,241.826813 373.638550,237.164642 
	C373.996277,244.928574 374.078796,252.866653 373.917419,260.799805 
	C373.886261,262.331268 372.900543,263.843292 372.116150,265.135986 
z"/>
<path fill="#AAA393" opacity="1.000000" stroke="none" 
	d="
M376.994934,333.498901 
	C377.358368,333.505402 377.965607,333.977264 377.965118,334.448547 
	C377.952576,346.882446 377.877197,359.316345 377.406891,371.942261 
	C376.985992,359.410858 376.970764,346.687439 376.994934,333.498901 
z"/>
<path fill="#756D5F" opacity="1.000000" stroke="none" 
	d="
M325.625824,393.595642 
	C313.265869,393.922668 300.622559,393.954559 287.515472,393.964905 
	C287.775360,393.633087 288.499969,393.050751 289.222656,393.053101 
	C301.262756,393.092194 313.302582,393.204498 325.625824,393.595642 
z"/>
<path fill="#C0BBAB" opacity="1.000000" stroke="none" 
	d="
M100.039108,271.644928 
	C99.666626,271.456146 99.033791,270.791138 99.035057,270.127319 
	C99.056602,258.824249 99.156738,247.521301 99.623383,235.979065 
	C100.029419,247.549606 100.051628,259.359436 100.039108,271.644928 
z"/>
<path fill="#FFFFFF" opacity="1.000000" stroke="none" 
	d="
M290.595337,312.946777 
	C290.414795,313.329346 289.763428,313.953491 289.112335,313.953247 
	C278.178772,313.949158 267.245270,313.867157 256.126099,313.399567 
	C267.335175,312.963715 278.729889,312.930756 290.595337,312.946777 
z"/>
<path fill="#746D63" opacity="1.000000" stroke="none" 
	d="
M395.994354,236.308136 
	C396.345459,237.326340 396.931335,238.822876 396.944672,240.324493 
	C397.032471,250.216782 396.996948,260.110168 396.956421,270.463928 
	C396.609863,269.031006 396.068268,267.139893 396.047668,265.243164 
	C395.944794,255.759186 395.978577,246.273743 395.994354,236.308136 
z"/>
<path fill="#8D8679" opacity="1.000000" stroke="none" 
	d="
M345.387634,179.639832 
	C345.048981,170.242249 345.017822,160.570786 344.880676,150.438263 
	C345.179810,150.819427 345.937012,151.662094 345.935944,152.503815 
	C345.924896,161.457947 345.793457,170.411942 345.387634,179.639832 
z"/>
<path fill="#D0C9BA" opacity="1.000000" stroke="none" 
	d="
M151.592758,150.322449 
	C151.944366,160.033966 151.949615,169.982224 151.919403,180.387665 
	C151.588974,177.490356 151.079071,174.138092 151.044266,170.780899 
	C150.974396,164.041748 151.163925,157.299911 151.592758,150.322449 
z"/>
<path fill="#938D7F" opacity="1.000000" stroke="none" 
	d="
M240.745422,312.826233 
	C231.389282,313.050079 221.760880,312.950439 211.682251,312.813416 
	C220.979080,312.684937 230.726120,312.593842 240.745422,312.826233 
z"/>
<path fill="#E8D3D1" opacity="1.000000" stroke="none" 
	d="
M122.968857,237.345642 
	C123.328857,238.165009 123.943810,239.458008 123.958557,240.757828 
	C124.046265,248.491837 123.995209,256.227448 123.953445,264.422180 
	C123.617561,261.592804 123.149719,258.308502 123.057938,255.013718 
	C122.898399,249.286697 122.971130,243.553223 122.968857,237.345642 
z"/>
<path fill="#BEB8AB" opacity="1.000000" stroke="none" 
	d="
M234.258728,350.992249 
	C235.936844,350.670166 238.097321,350.061493 240.262787,350.043243 
	C247.355774,349.983368 254.450577,350.138245 261.727936,350.600830 
	C252.855255,350.986084 243.799301,350.981049 234.258728,350.992249 
z"/>
<path fill="#BCB4A5" opacity="1.000000" stroke="none" 
	d="
M266.589417,393.555420 
	C258.035706,393.847260 249.223938,393.820190 240.230164,393.398438 
	C248.809219,393.081329 257.570282,393.158905 266.589417,393.555420 
z"/>
<path fill="#7A7468" opacity="1.000000" stroke="none" 
	d="
M306.770264,312.710571 
	C302.333069,313.033966 297.661224,313.001434 292.529572,312.948730 
	C296.891724,312.737244 301.713684,312.545929 306.770264,312.710571 
z"/>
<path fill="#756D5F" opacity="1.000000" stroke="none" 
	d="
M283.666992,393.646057 
	C279.633759,393.959808 275.319214,393.976288 270.550842,393.938080 
	C274.526581,393.705170 278.956146,393.526978 283.666992,393.646057 
z"/>
<path fill="#7A7468" opacity="1.000000" stroke="none" 
	d="
M254.951721,312.856628 
	C254.347397,313.374054 253.556625,313.626892 252.437042,313.838715 
	C252.993912,313.395813 253.879608,312.993896 254.951721,312.856628 
z"/>
<path fill="#756D5F" opacity="1.000000" stroke="none" 
	d="
M285.893768,394.014404 
	C285.875549,394.182709 285.463623,394.322662 284.882172,394.252686 
	C284.975128,394.023895 285.237579,394.005005 285.893768,394.014404 
z"/>
<path fill="#7A7468" opacity="1.000000" stroke="none" 
	d="
M307.899231,313.805603 
	C307.703522,313.872437 307.407654,313.694702 307.025085,313.264923 
	C307.225281,313.195618 307.512146,313.378326 307.899231,313.805603 
z"/>
</svg>